<?xml version="1.0" encoding="iso-8859-1"?>
<!-- Generator: Adobe Illustrator 21.0.2, SVG Export Plug-In . SVG Version: 6.00 Build 0)  -->
<svg version="1.1" xmlns="http://www.w3.org/2000/svg" xmlns:xlink="http://www.w3.org/1999/xlink" x="0px" y="0px"
	 viewBox="0 0 18.035 17.691" style="enable-background:new 0 0 18.035 17.691;" xml:space="preserve">
<g id="Epcot">
	<path d="M6.322,0.728c1.343-0.788,3.035-0.953,4.498-0.415c1.218,0.425,2.263,1.309,2.907,2.425
		c0.918,0.179,1.772,0.629,2.472,1.245c0.173,0.174,0.35,0.344,0.519,0.522c0.67,0.796,1.141,1.774,1.273,2.811
		c0.199,1.557-0.264,3.234-1.382,4.363c0.193,1.443-0.292,2.944-1.221,4.055c-0.46,0.537-1.003,1.012-1.634,1.338
		c-1.44,0.785-3.255,0.824-4.735,0.123c-1.523,0.708-3.391,0.648-4.851-0.193c-0.945-0.527-1.725-1.345-2.21-2.312
		c-0.46-0.92-0.698-1.979-0.526-3.003C0.837,11.054,0.414,10.27,0.18,9.437C-0.08,8.43-0.062,7.348,0.258,6.356
		c0.337-0.984,0.935-1.89,1.754-2.537c0.67-0.534,1.467-0.915,2.309-1.079C4.795,1.91,5.5,1.214,6.322,0.728z M8.09,1.554
		c-0.74,0.181-1.415,0.588-1.947,1.13C7.216,2.819,8.225,3.32,9.028,4.038c0.787-0.736,1.811-1.21,2.877-1.356
		c-0.335-0.322-0.699-0.623-1.123-0.822C9.961,1.434,8.985,1.342,8.09,1.554z M5.302,4.058C4.97,5.033,5,6.133,5.449,7.067
		c0.619-0.177,1.269-0.16,1.907-0.152c0.15-0.619,0.385-1.22,0.734-1.754C7.757,4.815,7.33,4.574,6.896,4.378
		C6.397,4.152,5.845,4.082,5.302,4.058z M12.064,4.111c-0.781,0.142-1.536,0.498-2.11,1.05c0.356,0.527,0.583,1.135,0.719,1.753
		c-0.475-0.308-1.028-0.526-1.602-0.516C8.118,6.363,7.185,6.882,6.664,7.671C6.334,8.164,6.174,8.766,6.21,9.358
		c0.039,0.688,0.336,1.367,0.844,1.838c0.509,0.52,1.232,0.794,1.952,0.825c-0.473,0.442-1.028,0.806-1.642,1.02
		c0.223,0.999,0.783,1.948,1.652,2.511c0.849-0.577,1.445-1.499,1.637-2.506C10.047,12.803,9.479,12.458,9,12.013
		c0.536,0.001,1.068-0.154,1.522-0.437c0.522-0.334,0.931-0.839,1.143-1.422c0.009-0.007,0.026-0.021,0.035-0.028
		c0.269,0.571,0.426,1.199,0.46,1.83c1.019,0.124,2.079-0.174,2.892-0.797c-0.289-0.981-0.991-1.82-1.878-2.32
		c-0.394,0.494-0.899,0.883-1.427,1.224c-0.014,0.002-0.041,0.006-0.055,0.008c0.162-0.468,0.174-0.98,0.078-1.463
		c-0.132-0.646-0.52-1.221-1.031-1.63c-0.005-0.013-0.014-0.037-0.019-0.049c0.626-0.042,1.269-0.025,1.879,0.139
		c0.317-0.673,0.447-1.439,0.338-2.177c-0.043-0.279-0.051-0.596-0.241-0.821C12.485,4.057,12.273,4.086,12.064,4.111z M1.462,7.558
		C1.348,8.376,1.543,9.212,1.92,9.939c0.448-0.991,1.259-1.772,2.175-2.335C3.659,6.625,3.491,5.506,3.717,4.452
		C2.502,5.017,1.644,6.238,1.462,7.558z M14.333,4.452c0.179,1.062,0.068,2.187-0.402,3.163c0.289,0.157,0.563,0.343,0.816,0.555
		c0.59,0.472,1.025,1.106,1.371,1.771c0.153-0.313,0.285-0.638,0.372-0.977c0.313-1.195-0.023-2.525-0.83-3.453
		C15.313,5.056,14.832,4.723,14.333,4.452z M2.985,11.162c0.813,0.613,1.865,0.916,2.878,0.795c0.049-0.645,0.208-1.28,0.473-1.869
		c-0.546-0.343-1.066-0.746-1.46-1.261C3.971,9.318,3.273,10.17,2.985,11.162z M2.842,12.786c0.186,1.283,1.016,2.455,2.179,3.034
		c0.751,0.41,1.642,0.503,2.478,0.371c-0.113-0.157-0.268-0.28-0.377-0.442c-0.559-0.681-0.972-1.489-1.137-2.358
		C4.906,13.528,3.804,13.278,2.842,12.786z M12.052,13.406c-0.231,1.05-0.764,2.04-1.547,2.781c0.386,0.04,0.776,0.097,1.163,0.036
		c1.002-0.095,1.944-0.613,2.604-1.365c0.503-0.579,0.806-1.311,0.907-2.068C14.231,13.304,13.126,13.526,12.052,13.406z"/>
	<path d="M8.396,8.109C8.532,7.674,8.734,7.262,9.011,6.9c0.284,0.36,0.487,0.776,0.627,1.211C9.224,8.104,8.81,8.106,8.396,8.109z"
		/>
	<path d="M6.994,8.111c0.284-0.533,0.788-0.918,1.351-1.117C8.133,7.338,7.98,7.716,7.874,8.105
		C7.581,8.108,7.287,8.104,6.994,8.111z"/>
	<path d="M9.691,6.992c0.569,0.191,1.075,0.587,1.362,1.119c-0.294-0.009-0.588-0.003-0.881-0.004
		C10.057,7.718,9.907,7.337,9.691,6.992z"/>
	<path d="M6.803,8.609c0.32,0.002,0.641,0.008,0.962-0.004C7.72,9.006,7.723,9.41,7.764,9.811c-0.32-0.017-0.641-0.007-0.962-0.003
		C6.692,9.417,6.689,9,6.803,8.609z"/>
	<path d="M8.276,8.61c0.497,0.007,0.994-0.006,1.49,0.008c0.051,0.394,0.047,0.792,0,1.186C9.27,9.802,8.773,9.803,8.276,9.806
		C8.214,9.41,8.219,9.006,8.276,8.61z"/>
	<path d="M10.269,8.611c0.328,0.005,0.657-0.005,0.986,0.007c0.024,0.188,0.083,0.371,0.079,0.561
		c0.011,0.215-0.05,0.424-0.09,0.634c-0.325-0.016-0.651-0.01-0.976-0.002C10.33,9.413,10.336,9.007,10.269,8.611z"/>
	<path d="M7,10.306c0.291,0.01,0.582,0.001,0.873,0.005c0.114,0.384,0.27,0.754,0.461,1.106C7.779,11.217,7.269,10.841,7,10.306z"/>
	<path d="M8.398,10.309c0.415,0,0.831,0.009,1.246-0.004c-0.147,0.43-0.349,0.843-0.632,1.201
		C8.742,11.145,8.527,10.743,8.398,10.309z"/>
	<path d="M10.168,10.31c0.292,0.001,0.585,0.002,0.878-0.002c-0.277,0.532-0.788,0.897-1.338,1.108
		C9.903,11.067,10.054,10.694,10.168,10.31z"/>
</g>
<g id="Layer_1">
</g>
</svg>
